<?xml version="1.0" encoding="utf-8"?>
<!-- Generator: Adobe Illustrator 22.0.1, SVG Export Plug-In . SVG Version: 6.00 Build 0)  -->
<svg version="1.1" id="Layer_1" xmlns="http://www.w3.org/2000/svg" xmlns:xlink="http://www.w3.org/1999/xlink" x="0px" y="0px"
	 viewBox="0 0 353 728.3" style="enable-background:new 0 0 353 728.3;" xml:space="preserve">
<style type="text/css">
	.st0{fill:#C9C9C9;}
</style>
<title>WallSticker_Vertical_3s</title>
<path class="st0" d="M100.6,244H39.8c-2.7,0-4.9,2.2-4.9,4.9c0,0,0,0,0,0v107.3c0,2.7,2.2,4.9,4.8,4.9c0,0,0,0,0,0h60.8
	c2.7,0,4.9-2.2,4.9-4.9V248.9C105.5,246.2,103.3,244,100.6,244z M61.4,247.2h17.7c0.7-0.1,1.3,0.5,1.4,1.2s-0.5,1.3-1.2,1.4
	c-0.1,0-0.2,0-0.2,0H61.4c-0.7-0.1-1.2-0.7-1.2-1.4C60.2,247.7,60.7,247.2,61.4,247.2z M70.2,358.3c-2.5,0-4.4-2-4.4-4.4
	c0-2.5,2-4.4,4.4-4.4c2.5,0,4.4,2,4.4,4.4c0,0,0,0,0,0C74.6,356.3,72.7,358.3,70.2,358.3C70.2,358.3,70.2,358.3,70.2,358.3z
	 M99.6,347H40.8c-1.3,0-2.4-1.1-2.4-2.4c0,0,0,0,0,0v-89c0-1.3,1.1-2.4,2.4-2.4c0,0,0,0,0,0h58.8c1.3,0,2.4,1.1,2.4,2.4v74.1
	l-22.2-56h-8.4l-25.3,63.7h8.5l8.4-21.6h25.2l8.4,21.7h5.4v7.2C102,345.9,100.9,347,99.6,347z M85.7,308.8h-20l10-25.9L85.7,308.8z"
	/>
<path class="st0" d="M115.3,609.7l1.4-1.5c-0.5,0.5-1.1,0.9-1.8,1.2L115.3,609.7z"/>
<path class="st0" d="M98.3,609.5c0.8,0,1.4-0.6,1.4-1.4v-37.3c0-0.8-0.6-1.4-1.4-1.4H43.4c-0.8,0-1.4,0.6-1.4,1.4V608
	c0,0.8,0.6,1.4,1.4,1.4L98.3,609.5z M52.5,574.9c3.1,0,5.7,2.5,5.6,5.7c0,3.1-2.5,5.7-5.7,5.7c-3.1,0-5.6-2.5-5.6-5.7
	C46.9,577.4,49.4,574.9,52.5,574.9z M59.4,594.5l2.8,2.8c0.3,0.3,0.8,0.5,1.3,0.5c0.5,0,0.9-0.2,1.3-0.5l10.1-10.1l18.8,18.7H48
	L59.4,594.5z"/>
<path class="st0" d="M105.3,642.7v-14.9l0.4,0.1h4.6c1.3,0,2.6-0.3,3.8-0.8h91.8c0.2,0,0.3,0,0.5,0c0.1,0,0.1,0,0.2-0.1
	c0.1,0,0.2,0,0.2-0.1c0.1,0,0.2-0.1,0.2-0.1c0.1,0,0.1-0.1,0.2-0.1c0.3-0.2,0.5-0.4,0.7-0.7c0-0.1,0.1-0.1,0.1-0.2
	c0-0.1,0.1-0.2,0.1-0.2c0-0.1,0.1-0.2,0.1-0.2c0-0.1,0-0.1,0.1-0.2c0-0.2,0-0.3,0-0.5V547c0-1.4-1.1-2.5-2.4-2.5c0,0,0,0,0,0H105.3
	v-9.3c0-2.7-2.2-4.9-4.9-4.9c0,0,0,0,0,0H39.7c-2.7,0-4.9,2.2-4.9,4.8c0,0,0,0,0,0v10.8l-0.4-0.3c-3.5-4.1-9.6-4.7-13.8-1.2
	c-2.2,1.9-3.5,4.6-3.5,7.5v11.2L5.9,586l0,0c0,0.1,0,0.2-0.1,0.2c0,0.1,0,0.1,0,0.2v39.8l-5.5,5.5c-0.4,0.4-0.5,1.1,0,1.6
	c0,0,0,0,0,0c0.4,0.4,1.2,0.5,1.6,0c0,0,0,0,0,0l5.8-5.7c0.1-0.1,0.2-0.2,0.2-0.4c0.1-0.1,0.1-0.3,0.1-0.4v-40L19.4,564l0,0
	c0-0.1,0-0.1,0-0.2c0-0.1,0-0.2,0-0.2v-11.5c0.2-4.1,3.6-7.4,7.7-7.2c3.9,0.1,7.1,3.3,7.2,7.2v16.3c-0.1,0.1-0.3,0.2-0.3,0.4
	l-10.8,23c-0.3,0.6,0,1.3,0.5,1.5c0.2,0.1,0.3,0.1,0.5,0.1c0.4,0,0.8-0.3,1-0.6l9-19.3l0.4-1.2v70.4c0,2.7,2.2,4.9,4.9,4.9h60.8
	c2.7,0.1,4.9-2,5-4.7C105.3,642.8,105.3,642.8,105.3,642.7z M110.3,576.2c4.1,0,7.5,3.3,7.5,7.5c0,4.1-3.3,7.5-7.5,7.5h-4.6v-15
	L110.3,576.2z M105.7,574v-15h4.6c4.1,0,7.5,3.4,7.5,7.5s-3.4,7.5-7.5,7.5l0,0H105.7z M110.3,593.5c2.1,0,4.2,0.9,5.6,2.5l0,0
	c0.9,1,1.5,2.2,1.8,3.5v0.2c0,0.2,0.1,0.3,0.1,0.5c0,0.2,0,0.5,0,0.7c0,0,0,0.1,0,0.1l0,0c-0.1,4-3.3,7.3-7.4,7.4l0,0h-0.1h-4.6v-15
	L110.3,593.5z M117.8,618.2c0,1.5-0.4,2.9-1.2,4.1l0,0c-0.3,0.5-0.7,0.9-1.1,1.3l-0.1,0.1c-0.2,0.2-0.4,0.3-0.6,0.5l-0.1,0.1
	c-0.5,0.3-1,0.6-1.5,0.8l-0.2,0.1c-0.2,0.1-0.4,0.2-0.6,0.2l-0.3,0.1c-0.2,0-0.4,0.1-0.6,0.1h-0.3c-0.3,0-0.6,0.1-0.9,0.1h-4.6
	v-14.9h4.6c1.1,0,2.2,0.3,3.2,0.8l0,0c1.5,0.7,2.7,1.9,3.5,3.5l0,0C117.5,615.9,117.8,617,117.8,618.2z M115.3,609.7l-0.3-0.2
	c0.6-0.3,1.2-0.8,1.8-1.2L115.3,609.7z M119.2,622.2c1.4-2.9,1.2-6.3-0.4-9.1l5.3-5.3c1-0.9,1.1-2.5,0.2-3.5s-2.5-1.1-3.5-0.2
	c-0.1,0.1-0.1,0.1-0.2,0.2l-2.8,2.9c1.5-1.8,2.3-4,2.4-6.3c0-0.7-0.1-1.3-0.2-2l4.2-4.2l6.9,6.9c1,1,2.5,1,3.5,0c0,0,0,0,0,0
	l22.5-22.5l43.1,43.1L119.2,622.2z M203.5,618.8l-44.8-44.8c-1-1-2.5-1-3.5,0c0,0,0,0,0,0l-22.4,22.5l-7-6.9c-1-0.9-2.5-0.9-3.5,0
	l-4.8,4.8c-0.7-0.8-1.6-1.5-2.6-2c4.8-2.5,6.6-8.5,4-13.2c-0.9-1.7-2.3-3.1-4-4c4.8-2.5,6.6-8.5,4-13.2c-1.7-3.2-5-5.2-8.6-5.2h-5
	v-7.2h98.2V618.8z M61.2,533.6h17.7c0.7,0,1.3,0.6,1.3,1.3c0,0.7-0.6,1.3-1.3,1.3H61.2c-0.7,0-1.3-0.6-1.3-1.3
	C60,534.2,60.5,533.6,61.2,533.6L61.2,533.6z M70.1,644.7c-2.4,0-4.4-2-4.4-4.4c0-2.4,2-4.4,4.4-4.4c2.4,0,4.4,2,4.4,4.4
	C74.5,642.7,72.5,644.7,70.1,644.7C70.1,644.7,70.1,644.7,70.1,644.7z M99.5,633.4H40.7c-1.3,0-2.4-1.1-2.4-2.4v-89
	c0-1.3,1.1-2.4,2.4-2.4h58.7c1.3,0,2.4,1.1,2.4,2.4v89C101.9,632.3,100.8,633.4,99.5,633.4C99.5,633.4,99.5,633.4,99.5,633.4
	L99.5,633.4z"/>
<path class="st0" d="M152.8,589.6l-10.2,10.2c-1,1-1,2.5,0,3.5s2.5,1,3.5,0l10.2-10.2c1-1,1-2.5,0-3.5S153.7,588.6,152.8,589.6z"/>
<path class="st0" d="M68.1,13c1.1-1.4,1.7-3.1,1.6-4.9c-1.7,0.2-3.3,1-4.5,2.3c-1.1,1.3-1.7,3-1.6,4.7C65.3,15.2,67,14.4,68.1,13z"
	/>
<path class="st0" d="M123.7,20.8c-1.7-0.1-3.2,0.7-4.1,2.2h-0.1l-0.1-1.9H117c0.1,1.4,0.1,2.7,0.1,4v13.1h2.7v-6.4h0.1
	c0.7,1.2,2.1,1.8,3.4,1.7c1.4,0,2.8-0.6,3.7-1.6c1.2-1.4,1.8-3.1,1.7-4.9c0.1-1.6-0.4-3.2-1.4-4.5C126.4,21.4,125.1,20.8,123.7,20.8
	z M125.1,30.2c-0.5,0.8-1.4,1.2-2.3,1.2c-0.8,0-1.6-0.3-2.1-0.9c-0.5-0.6-0.8-1.4-0.8-2.2v-2c0-0.3,0.1-0.6,0.1-0.8
	c0.1-0.7,0.5-1.3,1.1-1.7c0.5-0.4,1.1-0.7,1.8-0.7c0.9,0,1.8,0.4,2.4,1.2c0.6,0.9,0.8,1.9,0.8,2.9C126,28.2,125.7,29.3,125.1,30.2
	L125.1,30.2z"/>
<path class="st0" d="M109.7,20.8c-1.7-0.1-3.2,0.7-4.1,2.2l0,0l-0.1-1.9h-2.4c0.1,1.4,0.1,2.7,0.1,4v13.1h2.7v-6.4h0.1
	c0.7,1.2,2.1,1.8,3.4,1.7c1.4,0,2.8-0.6,3.7-1.6c1.2-1.4,1.8-3.1,1.7-4.9c0.1-1.6-0.4-3.2-1.4-4.5C112.5,21.4,111.1,20.8,109.7,20.8
	z M111.1,30.2c-0.5,0.8-1.4,1.2-2.4,1.2c-0.8,0-1.6-0.3-2.1-0.9c-0.5-0.6-0.8-1.4-0.8-2.2v-2c0-0.3,0.1-0.6,0.1-0.8
	c0.1-0.7,0.5-1.3,1.1-1.7c1.2-1,3-0.9,4,0.3c0.1,0.1,0.1,0.1,0.2,0.2c0.6,0.9,0.8,1.9,0.8,2.9C112.1,28.2,111.8,29.3,111.1,30.2
	L111.1,30.2z"/>
<path class="st0" d="M140.1,23.5c-0.9-0.3-1.7-0.7-2.5-1.3c-0.5-0.4-0.8-1-0.8-1.7c0-0.6,0.2-1.1,0.7-1.5c0.6-0.5,1.4-0.7,2.2-0.7
	c1.1,0,2.2,0.2,3.2,0.8l0.7-2.2c-1.2-0.6-2.5-0.8-3.8-0.8c-1.5-0.1-3,0.4-4.1,1.3c-1,0.8-1.6,2.1-1.5,3.4c0,2.1,1.5,3.7,4.4,4.8
	c0.9,0.3,1.6,0.7,2.3,1.3c0.5,0.5,0.7,1.1,0.7,1.7c0,0.7-0.3,1.4-0.9,1.8c-0.7,0.5-1.5,0.7-2.4,0.7c-1.4,0-2.7-0.4-3.9-1.1l-0.6,2.2
	c1.3,0.7,2.8,1.1,4.4,1c1.6,0.1,3.3-0.4,4.5-1.4c1-0.9,1.5-2.2,1.5-3.5c0-1.1-0.3-2.1-1-2.9C142.4,24.6,141.3,23.9,140.1,23.5z"/>
<path class="st0" d="M71.9,24.3c0-2.4,1.3-4.6,3.3-5.8c-1.3-1.8-3.4-3-5.6-3c-2.3-0.2-4.6,1.4-5.8,1.4s-3.1-1.4-5-1.3
	c-2.6,0.1-5,1.5-6.3,3.8c-2.7,4.7-0.7,11.6,1.9,15.4c1.3,1.8,2.8,3.9,4.8,3.8s2.7-1.2,5-1.2s3,1.2,5,1.2s3.4-1.9,4.7-3.7
	c0.9-1.3,1.7-2.8,2.1-4.3C73.5,29.4,71.9,27,71.9,24.3z"/>
<path class="st0" d="M160.8,20.8c-1.7-0.1-3.3,0.6-4.4,1.8c-1.1,1.3-1.7,2.9-1.6,4.6c-0.1,1.6,0.5,3.2,1.6,4.5
	c1.1,1.2,2.6,1.8,4.3,1.8c1.7,0.1,3.3-0.6,4.5-1.8c1.1-1.3,1.7-2.9,1.6-4.6c0.1-1.6-0.5-3.2-1.6-4.4C164,21.4,162.4,20.7,160.8,20.8
	z M163.1,30c-0.7,1.3-2.4,1.9-3.7,1.1c-0.5-0.3-0.9-0.7-1.1-1.1c-0.5-0.9-0.8-1.9-0.7-2.9c0-1,0.2-2,0.7-2.9
	c0.5-0.9,1.4-1.5,2.5-1.5c1,0,2,0.5,2.4,1.5C164.1,26,164.1,28.2,163.1,30L163.1,30z"/>
<path class="st0" d="M182.5,20.8c-1.7-0.1-3.2,0.7-4.2,2c-1,1.3-1.6,2.9-1.5,4.6c-0.1,1.6,0.5,3.2,1.6,4.5c1.2,1.1,2.8,1.7,4.5,1.6
	c1.4,0,2.7-0.2,4-0.7l-0.4-1.9c-1,0.4-2.2,0.6-3.3,0.6c-1,0-1.9-0.3-2.6-0.8c-0.8-0.7-1.2-1.7-1.2-2.8h8.1c0.1-0.4,0.1-0.8,0.1-1.2
	c0.1-1.4-0.3-2.7-1-3.9C185.5,21.4,184,20.7,182.5,20.8z M179.3,25.9c0.1-0.8,0.3-1.5,0.8-2.1c0.5-0.7,1.3-1.1,2.1-1.1
	c0.9,0,1.7,0.4,2.1,1.1c0.4,0.6,0.6,1.4,0.5,2.1L179.3,25.9z"/>
<path class="st0" d="M192.2,0H40.9c-3.3,0-6,2.7-6,6v37.2c0,3.3,2.7,6,6,6h151.3c3.3,0,6-2.7,6-6V6C198.2,2.7,195.5,0,192.2,0z
	 M196.1,42.8c0,2.5-2.1,4.6-4.6,4.6l0,0h-150c-2.5,0-4.6-2-4.6-4.6V6.3c0-2.5,2-4.6,4.6-4.6h150c2.5,0,4.6,2.1,4.6,4.6L196.1,42.8z"
	/>
<path class="st0" d="M92,16.4l-5.4,16.8h2.8l1.5-4.9h5.5l1.6,4.9h2.9l-5.4-16.8L92,16.4z M91.4,26.2l1.4-4.4
	c0.4-1.4,0.6-2.5,0.8-3.2l0,0c0.4,1.7,0.7,2.7,0.9,3.2l1.4,4.4H91.4z"/>
<path class="st0" d="M172.8,21.5c-0.6,0.5-1.1,1.2-1.4,1.9h-0.1l-0.1-2.3h-2.4c0.1,1.2,0.1,2.4,0.1,3.8v8.3h2.7v-6.4
	c0-0.8,0.2-1.7,0.7-2.4c0.5-0.7,1.3-1.1,2.2-1.1c0.3,0,0.6,0,0.9,0.1v-2.6c-0.2,0-0.4-0.1-0.7-0.1C174.1,20.8,173.4,21,172.8,21.5z"
	/>
<path class="st0" d="M150.3,18l-2.6,0.8v2.2h-1.8v2h1.8v6.1c-0.1,1.2,0.2,2.3,0.9,3.3c0.6,0.7,1.6,1,2.5,1c0.7,0,1.4-0.1,2.1-0.3
	l-0.1-2c-0.4,0.1-0.8,0.1-1.2,0.1c-1,0-1.6-0.8-1.6-2.2v-5.9h3v-2h-3V18z"/>
<path class="st0" d="M116.4,76.7c-2.9,0-5.3,2.4-5.3,5.3c0,2.9,2.4,5.3,5.3,5.3c2.9,0,5.3-2.4,5.3-5.3c0-2.9-2.3-5.2-5.1-5.3
	C116.6,76.7,116.5,76.7,116.4,76.7z M116.4,85.2c-1.8,0.1-3.3-1.2-3.4-3c-0.1-1.8,1.2-3.3,3-3.4c1.8-0.1,3.3,1.2,3.4,3
	c0,0.1,0,0.1,0,0.2c0.1,1.7-1.2,3.1-2.9,3.2C116.5,85.2,116.5,85.2,116.4,85.2L116.4,85.2z"/>
<rect x="134.5" y="71.4" class="st0" width="2.3" height="15.6"/>
<path class="st0" d="M130.7,77.9L130.7,77.9c-0.8-0.8-1.8-1.2-2.9-1.2c-2.9,0-5.3,2.4-5.3,5.3c0,2.9,2.4,5.3,5.3,5.3l0,0
	c1.1,0,2.1-0.4,2.8-1.2h0.1v0.8c0,2-1.1,3.1-2.8,3.1c-1.2,0-2.2-0.8-2.7-1.9l-2,0.8c0.8,1.9,2.6,3.2,4.7,3.1c2.7,0,5-1.6,5-5.5V77
	h-2.2L130.7,77.9z M128,85.3c-1.8-0.1-3.1-1.7-3-3.5c0.1-1.6,1.4-2.8,3-3c1.8,0.2,3,1.9,2.8,3.6C130.6,83.9,129.4,85.1,128,85.3z"/>
<path class="st0" d="M104.8,76.7c-2.9,0-5.3,2.4-5.3,5.3c0,2.9,2.4,5.3,5.3,5.3c2.9,0,5.3-2.4,5.3-5.3c0-2.9-2.3-5.2-5.1-5.3
	C105,76.7,104.9,76.7,104.8,76.7z M104.8,85.2c-1.8,0.1-3.3-1.2-3.4-3c-0.1-1.8,1.2-3.3,3-3.4c1.8-0.1,3.3,1.2,3.4,3
	c0,0.1,0,0.1,0,0.2c0.1,1.7-1.2,3.1-2.9,3.2C104.9,85.2,104.9,85.2,104.8,85.2L104.8,85.2z"/>
<path class="st0" d="M74.2,78.5c-1-0.5-23.7-13.4-23.7-13.4s-2.3-1.6-2.9,1.5v27c0.6,3.1,2.9,1.5,2.9,1.5S73.3,82,74.3,81.6
	c0.6-0.2,1-0.8,1-1.4l0,0C75.2,79.5,74.9,78.8,74.2,78.5z"/>
<path class="st0" d="M91.1,78.4v2.2h5.4c-0.1,1.1-0.5,2-1.2,2.8c-1.1,1.1-2.6,1.7-4.1,1.7c-3.3-0.3-5.7-3.2-5.4-6.5
	c0.3-2.9,2.5-5.2,5.4-5.4c1.5,0,2.9,0.6,4,1.6l1.6-1.6c-1.5-1.5-3.5-2.3-5.6-2.3c-4.5,0-8.2,3.7-8.2,8.2s3.7,8.2,8.2,8.2
	c2.2,0.1,4.2-0.7,5.7-2.3c1.3-1.4,2-3.3,1.9-5.2c0-0.5,0-0.9-0.1-1.4H91.1z"/>
<path class="st0" d="M158.4,71.4h-5.6V87h2.3v-5.9h3.2c2.7,0.1,4.9-1.9,5.1-4.6s-1.9-4.9-4.6-5.1C158.7,71.4,158.5,71.4,158.4,71.4
	L158.4,71.4z M158.4,78.9h-3.3v-5.3h3.3c1.5-0.1,2.7,1,2.8,2.5c0.1,1.5-1,2.7-2.5,2.8C158.6,79,158.5,79,158.4,78.9z"/>
<polygon class="st0" points="183,83.8 182.9,83.8 180.1,77.1 177.6,77.1 181.8,86.5 179.4,91.7 181.9,91.7 188.2,77.1 185.7,77.1 
	"/>
<path class="st0" d="M192.2,55.6H40.8c-3.3,0-6,2.7-6,6v37.1c0,3.3,2.7,6,6,6h151.4c3.3,0,6-2.7,6-6V61.6
	C198.2,58.3,195.5,55.6,192.2,55.6z M196.2,98c0,2.8-2.2,5-5,5H41.7c-2.8,0-5-2.2-5-5V62.1c0-2.8,2.2-5,5-5h149.4c2.8,0,5,2.2,5,5
	L196.2,98z"/>
<path class="st0" d="M172.8,76.7c-1.7-0.1-3.4,0.8-4.1,2.4l2.1,0.9c0.8-1.2,2.3-1.5,3.5-0.7c0.6,0.4,0.9,0.9,1.1,1.6V81
	c-0.7-0.4-1.6-0.6-2.4-0.6c-2.2,0-4.5,1.2-4.5,3.5c0.1,2,1.8,3.5,3.8,3.4c0,0,0.1,0,0.1,0c1.2,0.1,2.4-0.5,3-1.5h0.1V87h2.2v-6
	C177.5,78.3,175.4,76.7,172.8,76.7z M172.5,85.2c-0.8,0-1.8-0.4-1.8-1.3c0-1.2,1.3-1.7,2.5-1.7c0.7,0,1.5,0.2,2.1,0.5
	C175.1,84.2,173.9,85.2,172.5,85.2L172.5,85.2z"/>
<rect x="164.7" y="71.4" class="st0" width="2.3" height="15.6"/>
<path class="st0" d="M147.5,80.1c-0.7-2-2.5-3.3-4.5-3.4c-2.8,0-5,2.2-5,5c0,0.1,0,0.2,0,0.3c-0.1,2.9,2.2,5.2,5,5.3
	c0.1,0,0.1,0,0.2,0c1.8,0,3.4-0.9,4.4-2.3l-1.8-1.2c-0.5,0.9-1.5,1.5-2.6,1.5c-1.1,0-2.1-0.6-2.6-1.6l7.1-2.9L147.5,80.1z
	 M140.2,81.9c-0.1-1.6,1.1-3,2.7-3.1c0,0,0,0,0,0c0.8-0.1,1.6,0.4,2,1.1L140.2,81.9z"/>
<path class="st0" d="M33.3,134.4h4.5v17.3h-4.5V134.4z"/>
<path class="st0" d="M53.8,139.5c0.9,1,1.4,2.4,1.3,3.7v8.4h-4.3v-7.1c0-0.7-0.2-1.3-0.6-1.8c-0.4-0.4-1-0.7-1.7-0.7
	c-0.7,0-1.3,0.3-1.8,0.7c-0.5,0.5-0.8,1.1-0.8,1.8v7.1h-4.4v-13.3h4.4v2.2c0.4-0.8,1.1-1.4,1.8-1.8c0.8-0.4,1.7-0.6,2.6-0.6
	C51.6,138.1,52.9,138.6,53.8,139.5z"/>
<path class="st0" d="M63.2,141.2c-0.3,0-0.6,0.1-0.9,0.2c-0.2,0.1-0.4,0.4-0.3,0.6c0,0.3,0.2,0.6,0.5,0.7c0.6,0.3,1.1,0.4,1.7,0.6
	c0.8,0.2,1.6,0.5,2.4,0.8c0.6,0.3,1.2,0.7,1.6,1.2c0.5,0.6,0.7,1.4,0.7,2.1c0.1,1.3-0.5,2.5-1.6,3.2c-1.2,0.8-2.6,1.2-4.1,1.1
	c-1.1,0-2.2-0.2-3.2-0.5c-1-0.3-1.9-0.8-2.8-1.4l1.4-2.8c0.7,0.5,1.5,0.9,2.4,1.2c0.8,0.3,1.5,0.4,2.3,0.4c0.3,0,0.7-0.1,1-0.2
	c0.2-0.1,0.4-0.3,0.4-0.6c0-0.3-0.2-0.6-0.6-0.8c-0.6-0.2-1.1-0.4-1.7-0.6c-0.8-0.2-1.6-0.5-2.3-0.8c-0.6-0.3-1.2-0.7-1.6-1.2
	c-0.5-0.6-0.7-1.4-0.7-2.1c0-1.2,0.5-2.4,1.5-3.2c1.2-0.8,2.5-1.2,3.9-1.1c2,0,3.9,0.5,5.5,1.6l-1.5,2.9
	C66.2,141.8,64.7,141.3,63.2,141.2z"/>
<path class="st0" d="M80.5,151c-0.5,0.3-1.1,0.5-1.7,0.6c-0.6,0.2-1.3,0.2-1.9,0.2c-1.2,0.1-2.3-0.3-3.2-1.1c-0.8-0.8-1.3-2-1.2-3.1
	v-5.7h-1.8V139h1.8v-3.7h4.4v3.7h3.4v2.9h-3.4v5c0,0.9,0.4,1.4,1.2,1.4c0.6,0,1.2-0.2,1.7-0.4L80.5,151z"/>
<path class="st0" d="M93.4,139.4c1,0.9,1.6,2.2,1.6,3.6v8.7h-4.3v-1.5c-2,2-5.1,2.3-7.3,0.6c-0.8-0.8-1.3-1.9-1.2-3
	c-0.1-1.2,0.4-2.3,1.3-3c1.1-0.8,2.4-1.1,3.8-1.1h3.5v-0.1c0-0.6-0.2-1.1-0.6-1.5c-0.5-0.4-1.2-0.6-1.9-0.5c-0.6,0-1.3,0.1-1.9,0.3
	c-0.7,0.2-1.4,0.5-2.1,0.8l-1.2-3c1-0.5,2-0.8,3.1-1.1c1-0.2,2-0.4,3.1-0.4C90.6,138,92.2,138.5,93.4,139.4z M89.7,148.4
	c0.5-0.3,0.8-0.7,0.9-1.2V146H88c-1.2,0-1.8,0.5-1.8,1.4c0,0.4,0.2,0.8,0.5,1.1c0.4,0.3,0.8,0.4,1.3,0.4
	C88.6,148.9,89.2,148.7,89.7,148.4L89.7,148.4z"/>
<path class="st0" d="M98.3,133.4h4.4v18.3h-4.4V133.4z"/>
<path class="st0" d="M106.4,133.4h4.4v18.3h-4.4V133.4z"/>
<path class="st0" d="M128.2,150.8c-0.8,0.6-1.8,1-2.9,1c-0.9,0-1.7-0.3-2.3-0.9c-0.6-0.8-0.9-1.8-0.9-2.7v-7.7h-1.9v-1.3h1.9v-3.3
	h1.6v3.3h4.2v1.3h-4.2v7.4c0,1.6,0.6,2.4,1.8,2.4c0.8,0,1.5-0.3,2.1-0.7L128.2,150.8z"/>
<path class="st0" d="M141.8,140c0.9,1,1.4,2.3,1.3,3.7v7.9h-1.7v-7.5c0.1-1-0.3-2.1-1-2.9c-0.8-0.7-1.8-1.1-2.8-1
	c-1.3-0.1-2.5,0.5-3.4,1.4c-0.8,1-1.3,2.4-1.2,3.7v6.3h-1.6v-18.3h1.6v8.4c0.9-2,2.6-3.1,5.1-3.1C139.5,138.6,140.8,139.1,141.8,140
	z"/>
<path class="st0" d="M157.5,140.6c1.1,1.5,1.6,3.3,1.4,5.1h-10.8c0.1,1.3,0.6,2.5,1.5,3.3c0.9,0.8,2.1,1.3,3.4,1.3
	c0.8,0,1.6-0.1,2.3-0.4c0.7-0.3,1.3-0.7,1.8-1.3l0.9,0.9c-0.6,0.7-1.4,1.2-2.3,1.6c-0.9,0.4-1.9,0.6-2.9,0.6c-1.2,0-2.3-0.3-3.3-0.8
	c-1-0.5-1.7-1.3-2.3-2.3c-1.1-2.1-1.1-4.6,0-6.7c0.5-1,1.3-1.8,2.3-2.3c1-0.6,2.1-0.9,3.3-0.8C154.6,138.6,156.3,139.3,157.5,140.6z
	 M157.5,144.5c0-1.2-0.5-2.4-1.4-3.2c-0.9-0.8-2-1.3-3.2-1.2c-1.2,0-2.4,0.4-3.2,1.2c-0.9,0.8-1.4,2-1.5,3.2H157.5z"/>
<path class="st0" d="M47.2,181.2l-2.1-4.6h-9.6l-2,4.6h-1.8l7.8-17.2h1.8l7.8,17.2L47.2,181.2z M36.2,175.1h8.2l-4.1-9.3L36.2,175.1
	z"/>
<path class="st0" d="M55.4,169c0.9-0.5,1.9-0.8,2.9-0.8v1.5c-1.2-0.1-2.4,0.4-3.3,1.2c-0.9,0.9-1.4,2.1-1.4,3.3v6.9h-1.7v-12.9h1.7
	v3C53.9,170.4,54.5,169.6,55.4,169z"/>
<path class="st0" d="M68.4,180.3c-0.8,0.6-1.8,0.9-2.9,1c-0.9,0-1.7-0.3-2.3-0.9c-0.6-0.8-0.9-1.8-0.9-2.7V170h-1.8v-1.3h1.9v-3.3
	H64v3.3h4.2v1.3H64v7.4c0,1.6,0.6,2.4,1.8,2.4c0.8,0,1.5-0.3,2.2-0.7L68.4,180.3z"/>
<path class="st0" d="M73.1,163.7c0.4,0.5,0.4,1.2,0,1.7c-0.2,0.2-0.5,0.3-0.8,0.3c-0.3,0-0.6-0.1-0.8-0.3c-0.2-0.2-0.3-0.5-0.3-0.8
	c0-0.6,0.5-1.1,1.1-1.2c0,0,0,0,0.1,0C72.6,163.4,72.9,163.5,73.1,163.7z M71.5,168.3h1.7v12.9h-1.7V168.3z"/>
<path class="st0" d="M76,168.3h1.8l4.3,11.2l4.2-11.2H88l-5.1,12.9h-1.8L76,168.3z"/>
<path class="st0" d="M92.4,163.7c0.4,0.5,0.4,1.2,0,1.7c-0.2,0.2-0.5,0.3-0.8,0.3c-0.3,0-0.6-0.1-0.8-0.3c-0.2-0.2-0.3-0.5-0.3-0.8
	c0-0.6,0.5-1.1,1.1-1.2c0,0,0,0,0.1,0C91.9,163.4,92.2,163.5,92.4,163.7z M90.8,168.3h1.6v12.9h-1.6V168.3z"/>
<path class="st0" d="M95.3,168.3h1.8l4.3,11.2l4.2-11.2h1.7l-5.1,12.9h-1.8L95.3,168.3z"/>
<path class="st0" d="M119.5,170.2c1.1,1.5,1.6,3.3,1.4,5.1h-10.8c0.1,1.3,0.6,2.5,1.5,3.3c0.9,0.8,2.1,1.3,3.4,1.3
	c0.8,0,1.6-0.1,2.3-0.4c0.7-0.3,1.3-0.7,1.8-1.2l0.9,0.9c-0.6,0.7-1.4,1.2-2.3,1.6c-0.9,0.4-1.9,0.6-2.9,0.6c-1.2,0-2.3-0.3-3.3-0.8
	c-1-0.5-1.8-1.3-2.3-2.3c-1.1-2.1-1.1-4.6,0-6.7c0.5-1,1.3-1.8,2.3-2.3c1-0.6,2.1-0.8,3.3-0.8C116.6,168.1,118.3,168.8,119.5,170.2z
	 M119.5,174c0-1.2-0.5-2.4-1.3-3.2c-0.9-0.8-2-1.3-3.2-1.2c-1.2,0-2.4,0.4-3.2,1.2c-0.9,0.8-1.4,2-1.5,3.2H119.5z"/>
<path class="st0" d="M140.5,181.2V179c-0.5,0.7-1.2,1.3-2,1.7c-0.9,0.4-1.9,0.6-2.8,0.6c-0.8,0-1.6-0.2-2.3-0.5
	c-0.6-0.3-1.2-0.8-1.5-1.4c-0.4-0.6-0.6-1.3-0.5-2c0-1,0.4-2,1.3-2.6c1-0.7,2.3-1.1,3.6-1h4.3v-1c0-0.9-0.3-1.7-0.9-2.4
	c-0.7-0.6-1.7-0.9-2.7-0.8c-1.5,0-3,0.6-4.2,1.5L132,170c0.8-0.6,1.6-1,2.5-1.3c0.9-0.3,1.8-0.4,2.7-0.4c1.3-0.1,2.6,0.3,3.6,1.2
	c0.9,0.8,1.4,2,1.3,3.2v8.5L140.5,181.2z M138.8,179.1c0.8-0.5,1.4-1.3,1.6-2.3v-1.8h-4.2c-0.9-0.1-1.8,0.1-2.6,0.6
	c-0.6,0.4-0.9,1-0.9,1.7c0,0.7,0.3,1.4,0.9,1.9c0.6,0.5,1.4,0.7,2.2,0.7C137,179.9,138,179.7,138.8,179.1z"/>
<path class="st0" d="M156.6,169.1c0.9,0.5,1.7,1.4,2.2,2.3c0.5,1,0.8,2.2,0.8,3.4c0,1.2-0.2,2.3-0.8,3.4c-0.5,1-1.3,1.8-2.2,2.3
	c-1,0.6-2.1,0.8-3.2,0.8c-1.1,0-2.2-0.2-3.1-0.8c-0.9-0.5-1.6-1.3-2.1-2.2v7.8h-1.6v-17.7h1.6v3c0.4-0.9,1.2-1.7,2-2.2
	c0.9-0.5,2-0.8,3.1-0.8C154.6,168.2,155.7,168.5,156.6,169.1z M155.6,179.2c0.7-0.4,1.3-1.1,1.7-1.8c0.8-1.7,0.8-3.6,0-5.2
	c-0.4-0.8-1-1.4-1.7-1.8c-1.6-0.9-3.4-0.9-5,0c-0.7,0.4-1.3,1.1-1.7,1.8c-0.8,1.7-0.8,3.6,0,5.2c0.4,0.8,1,1.4,1.7,1.8
	C152.2,180,154.1,180,155.6,179.2z"/>
<path class="st0" d="M173.4,169.1c0.9,0.5,1.7,1.4,2.2,2.3c0.5,1,0.8,2.2,0.8,3.4c0,1.2-0.2,2.3-0.8,3.4c-0.5,1-1.3,1.8-2.2,2.3
	c-1,0.6-2.1,0.8-3.2,0.8c-1.1,0-2.2-0.2-3.1-0.8c-0.9-0.5-1.6-1.3-2.1-2.2v7.8h-1.6v-17.7h1.6v3c0.4-0.9,1.1-1.7,2-2.2
	c0.9-0.5,2-0.8,3.1-0.8C171.3,168.2,172.4,168.5,173.4,169.1z M172.4,179.2c0.7-0.4,1.3-1.1,1.7-1.8c0.8-1.7,0.8-3.6,0-5.2
	c-0.4-0.8-1-1.4-1.7-1.8c-1.6-0.9-3.4-0.9-5,0c-0.7,0.4-1.3,1.1-1.7,1.8c-0.4,0.8-0.6,1.7-0.6,2.6c0,0.9,0.2,1.8,0.6,2.6
	c0.4,0.8,1,1.4,1.7,1.8C169,180,170.9,180,172.4,179.2L172.4,179.2z"/>
<path class="st0" d="M6.2,134.4h5.9v17.2h-1.7v-15.7H6.2V134.4z"/>
<path class="st0" d="M18.5,149.9c0.2,0.2,0.3,0.5,0.3,0.8c0,0.3-0.1,0.6-0.3,0.8c-0.2,0.2-0.5,0.3-0.8,0.3c-0.3,0-0.6-0.1-0.8-0.3
	c-0.4-0.5-0.4-1.1,0-1.6c0.2-0.2,0.5-0.3,0.8-0.3C18,149.6,18.3,149.7,18.5,149.9z"/>
<path class="st0" d="M14.8,406.3v1.6H2v-1.5l7.1-7.5c0.8-0.8,1.4-1.6,2-2.5c0.4-0.6,0.7-1.4,0.7-2.1c0-0.9-0.4-1.7-1.1-2.2
	c-0.9-0.6-1.9-0.9-2.9-0.8c-0.9,0-1.8,0.2-2.7,0.6c-0.9,0.4-1.8,0.9-2.5,1.6l-0.8-1.3c0.9-0.8,1.8-1.4,2.9-1.8
	c1-0.4,2.1-0.6,3.2-0.6c1.5-0.1,2.9,0.3,4.1,1.2c1,0.7,1.6,1.9,1.5,3.2c-0.1,1-0.4,1.9-0.9,2.7c-0.7,1.1-1.5,2.2-2.4,3.1l-6.1,6.3
	H14.8z"/>
<path class="st0" d="M19.5,406.1c0.2,0.2,0.3,0.5,0.3,0.8c0,0.3-0.1,0.6-0.3,0.8c-0.4,0.5-1.2,0.5-1.6,0c0,0,0,0,0,0
	c-0.2-0.2-0.3-0.5-0.3-0.9c0-0.3,0.1-0.6,0.3-0.8c0.2-0.2,0.5-0.3,0.8-0.3C19,405.8,19.3,405.9,19.5,406.1z"/>
<path class="st0" d="M34.2,390.6h12.9v3.6h-8.3v3.9h7.7v3.6h-7.7v6.2h-4.6V390.6z"/>
<path class="st0" d="M53.2,389.1c0.9,1,0.9,2.4,0,3.4c-0.9,0.9-2.4,0.9-3.3,0c-0.9-0.9-0.9-2.4,0-3.4
	C50.8,388.2,52.2,388.2,53.2,389.1z M49.3,394.6h4.4v13.3h-4.4V394.6z"/>
<path class="st0" d="M69.6,395.8c0.9,1,1.4,2.4,1.3,3.7v8.4h-4.4v-7.2c0-0.7-0.2-1.3-0.6-1.8c-0.4-0.4-1-0.7-1.7-0.7
	c-0.7,0-1.3,0.3-1.8,0.7c-0.5,0.5-0.8,1.1-0.8,1.8v7h-4.4v-13.3h4.4v2.1c0.4-0.7,1.1-1.3,1.8-1.8c0.8-0.4,1.7-0.6,2.6-0.6
	C67.4,394.3,68.6,394.8,69.6,395.8z"/>
<path class="st0" d="M87.8,389.6v18.3h-4.4v-1.7c-0.4,0.6-1,1.1-1.7,1.4c-0.7,0.3-1.5,0.5-2.2,0.5c-1.1,0-2.3-0.3-3.2-0.9
	c-0.9-0.6-1.7-1.4-2.2-2.4c-0.5-1.1-0.8-2.4-0.8-3.6c0-1.2,0.2-2.4,0.8-3.5c0.5-1,1.2-1.8,2.2-2.4c1-0.6,2.1-0.9,3.2-0.8
	c0.8,0,1.6,0.2,2.3,0.5c0.7,0.3,1.3,0.8,1.7,1.4v-6.7L87.8,389.6z M82.7,403.7c0.5-0.7,0.8-1.5,0.8-2.4c0-0.9-0.2-1.7-0.8-2.4
	c-0.5-0.6-1.3-0.9-2.1-0.9c-0.8,0-1.6,0.3-2.1,0.9c-1.1,1.4-1.1,3.4,0,4.8c1,1.1,2.8,1.2,4,0.2C82.6,403.8,82.6,403.8,82.7,403.7z"
	/>
<path class="st0" d="M108.4,407.9v-2.2c-0.5,0.8-1.2,1.3-2,1.7c-0.9,0.4-1.9,0.6-2.9,0.6c-0.8,0-1.6-0.2-2.3-0.5
	c-1.3-0.6-2.1-2-2.1-3.4c0-1,0.4-2,1.3-2.7c1.1-0.7,2.3-1.1,3.6-1h4.4v-1c0.1-0.9-0.3-1.8-0.9-2.4c-0.8-0.6-1.7-0.9-2.7-0.9
	c-1.5,0-3,0.6-4.2,1.6l-0.7-1.1c0.8-0.6,1.6-1,2.5-1.4c0.9-0.3,1.8-0.5,2.7-0.4c1.3-0.1,2.6,0.3,3.7,1.2c0.9,0.9,1.4,2,1.3,3.3v8.6
	L108.4,407.9z M106.7,405.8c0.8-0.5,1.4-1.3,1.6-2.3v-1.8h-4.2c-0.9-0.1-1.8,0.1-2.6,0.6c-0.6,0.4-0.9,1-0.9,1.7
	c0,0.7,0.3,1.4,0.9,1.9c0.7,0.5,1.5,0.8,2.3,0.7C104.8,406.6,105.8,406.3,106.7,405.8z"/>
<path class="st0" d="M118,395.6c0.9-0.5,1.9-0.8,2.9-0.8v1.6c-1.2-0.1-2.4,0.4-3.3,1.2c-0.9,0.9-1.4,2.1-1.4,3.4v7h-1.7v-13.1h1.7v3
	C116.6,396.9,117.2,396.1,118,395.6z"/>
<path class="st0" d="M131.2,407c-0.8,0.6-1.8,1-2.9,1c-0.9,0-1.7-0.3-2.4-0.9c-0.6-0.8-0.9-1.8-0.9-2.8v-7.8h-1.9v-1.3h1.9v-3.4h1.7
	v3.4h4.2v1.3h-4.2v7.5c0,1.6,0.6,2.4,1.8,2.4c0.8,0,1.5-0.3,2.2-0.7L131.2,407z"/>
<path class="st0" d="M133.1,394.8h1.8l4,11.4l4-11.4h1.8l4,11.4l4-11.4h1.7l-4.9,13.1h-1.7l-4-11l-4,11H138L133.1,394.8z"/>
<path class="st0" d="M165.6,395.6c1,0.5,1.8,1.3,2.3,2.3c0.6,1,0.9,2.2,0.9,3.4c0,1.2-0.3,2.4-0.9,3.4c-0.5,1-1.4,1.8-2.3,2.3
	c-2.1,1.1-4.7,1.1-6.8,0c-1-0.6-1.8-1.4-2.3-2.3c-0.6-1.1-0.9-2.2-0.9-3.4c0-1.2,0.3-2.3,0.9-3.4c0.5-1,1.4-1.8,2.3-2.3
	C160.9,394.5,163.4,394.5,165.6,395.6z M159.6,396.9c-0.7,0.4-1.3,1.1-1.7,1.8c-0.8,1.7-0.8,3.7,0,5.4c0.4,0.8,1,1.4,1.7,1.8
	c1.6,0.9,3.5,0.9,5.1,0c0.7-0.4,1.4-1.1,1.8-1.8c0.8-1.7,0.8-3.7,0-5.4c-0.4-0.8-1-1.4-1.8-1.8C163.1,396,161.2,396,159.6,396.9
	L159.6,396.9z"/>
<path class="st0" d="M176,395.6c0.9-0.5,1.9-0.8,2.9-0.8v1.6c-1.2-0.1-2.4,0.4-3.3,1.2c-0.9,0.9-1.4,2.1-1.4,3.4v7h-1.7v-13.1h1.7v3
	C174.5,396.9,175.2,396.1,176,395.6z"/>
<path class="st0" d="M191.2,407.9l-4.6-6.8l-2.9,3v3.8h-1.7v-18.5h1.7V402l7-7.1h2l-4.9,5.1l5.5,8H191.2z"/>
<path class="st0" d="M201.7,396.4c-0.6-0.2-1.2-0.3-1.8-0.3c-0.7,0-1.4,0.1-2,0.5c-0.5,0.3-0.8,0.9-0.8,1.5c0,0.4,0.1,0.8,0.4,1.1
	c0.3,0.3,0.6,0.5,1,0.7c0.6,0.2,1.1,0.4,1.7,0.6c0.7,0.2,1.5,0.5,2.2,0.8c0.6,0.3,1.1,0.6,1.5,1.1c0.4,0.6,0.6,1.2,0.6,1.9
	c0.1,1.1-0.5,2.1-1.3,2.7c-1,0.7-2.2,1-3.4,0.9c-0.9,0-1.9-0.2-2.7-0.5c-0.8-0.3-1.6-0.7-2.2-1.3l0.7-1.2c1.2,1.1,2.8,1.7,4.4,1.7
	c0.8,0,1.5-0.2,2.2-0.5c0.5-0.3,0.9-0.9,0.8-1.6c0-0.4-0.1-0.9-0.4-1.2c-0.3-0.3-0.7-0.6-1.1-0.7c-0.4-0.2-1-0.4-1.8-0.6
	c-0.7-0.2-1.4-0.5-2.1-0.8c-0.5-0.2-1-0.6-1.4-1.1c-1-1.4-0.7-3.4,0.7-4.5c1-0.6,2.1-0.9,3.2-0.9c0.7,0,1.5,0.1,2.2,0.3
	c0.7,0.2,1.3,0.5,1.9,0.8l-0.6,1.3C202.9,396.8,202.3,396.6,201.7,396.4z"/>
<path class="st0" d="M55.3,426c0.9,1,1.4,2.4,1.3,3.7v8h-1.7v-7.6c0.1-1.1-0.3-2.1-1-2.9c-0.7-0.7-1.8-1.1-2.8-1
	c-1.3,0-2.5,0.5-3.3,1.5c-0.8,1-1.3,2.3-1.2,3.7v6.4h-1.7v-7.6c0.1-1.1-0.3-2.1-1-2.9c-0.7-0.7-1.8-1.1-2.8-1
	c-1.3,0-2.5,0.5-3.3,1.4c-0.8,1-1.3,2.3-1.2,3.7v6.4H35v-13.1h1.7v3.1c0.4-1,1.1-1.8,1.9-2.3c1-0.5,2-0.8,3.1-0.8
	c1.1,0,2.2,0.3,3.1,0.9c0.8,0.6,1.4,1.6,1.6,2.6c0.3-1.1,1-2,1.9-2.6c1-0.6,2.1-0.9,3.3-0.9C53,424.6,54.3,425.1,55.3,426z"/>
<path class="st0" d="M69.4,437.8v-2.2c-0.5,0.7-1.2,1.3-2,1.7c-0.9,0.4-1.9,0.6-2.9,0.6c-0.8,0-1.6-0.2-2.3-0.5
	c-0.6-0.3-1.2-0.8-1.6-1.4c-0.4-0.6-0.5-1.3-0.5-2c0-1.1,0.4-2.1,1.3-2.7c1.1-0.7,2.3-1.1,3.6-1h4.4v-1c0.1-0.9-0.3-1.8-0.9-2.4
	c-0.8-0.6-1.7-0.9-2.7-0.8c-1.5,0-3,0.6-4.2,1.6l-0.8-1.1c0.8-0.6,1.6-1,2.5-1.4c0.9-0.3,1.8-0.4,2.8-0.4c1.3-0.1,2.6,0.3,3.7,1.2
	c0.9,0.9,1.4,2,1.3,3.3v8.6L69.4,437.8z M67.7,435.6c0.8-0.5,1.4-1.3,1.6-2.3v-1.8h-4.2c-0.9-0.1-1.8,0.1-2.6,0.6
	c-0.6,0.4-0.9,1-0.9,1.7c0,0.7,0.3,1.4,0.9,1.9c0.7,0.5,1.5,0.8,2.3,0.7C65.8,436.5,66.8,436.2,67.7,435.6z"/>
<path class="st0" d="M79,425.5c0.9-0.5,1.9-0.8,2.9-0.8v1.6c-1.2-0.1-2.4,0.4-3.3,1.2c-0.9,0.9-1.4,2.1-1.4,3.4v7h-1.7v-13.1h1.7v3
	C77.6,426.8,78.2,426,79,425.5z"/>
<path class="st0" d="M94.2,437.8l-4.6-6.8l-2.9,3v3.8h-1.7v-18.5h1.7v12.5l7-7.1h2l-4.9,5l5.5,8L94.2,437.8z"/>
<path class="st0" d="M108.5,426.6c1.1,1.5,1.6,3.3,1.5,5.2H99.1c0.1,1.3,0.6,2.5,1.5,3.4c0.9,0.9,2.1,1.3,3.4,1.3
	c0.8,0,1.6-0.1,2.3-0.5c0.7-0.3,1.3-0.7,1.8-1.3l1,1c-0.6,0.7-1.4,1.2-2.3,1.6c-0.9,0.4-1.9,0.6-2.9,0.6c-1.2,0-2.3-0.3-3.4-0.8
	c-1-0.6-1.8-1.4-2.3-2.3c-1.1-2.1-1.1-4.7,0-6.8c0.5-1,1.3-1.8,2.3-2.3c1-0.6,2.2-0.8,3.3-0.8C105.6,424.6,107.3,425.3,108.5,426.6z
	 M108.5,430.5c0-1.2-0.5-2.4-1.4-3.2c-0.9-0.8-2-1.3-3.2-1.2c-1.2,0-2.4,0.4-3.3,1.2c-0.9,0.8-1.4,2-1.5,3.2H108.5z"/>
<path class="st0" d="M125.9,419.3v18.5h-1.7v-3c-0.5,0.9-1.2,1.7-2.1,2.3c-1,0.6-2,0.8-3.1,0.8c-1.2,0-2.3-0.3-3.3-0.9
	c-1-0.6-1.7-1.4-2.2-2.4c-0.5-1.1-0.8-2.2-0.8-3.4c0-1.2,0.3-2.4,0.8-3.4c0.5-1,1.3-1.8,2.2-2.4c1-0.6,2.1-0.9,3.2-0.8
	c1.1,0,2.2,0.3,3.1,0.8c0.9,0.5,1.6,1.3,2.1,2.3v-8.4L125.9,419.3z M121.8,435.8c0.7-0.4,1.4-1.1,1.8-1.8c0.4-0.8,0.7-1.7,0.6-2.7
	c0-0.9-0.2-1.9-0.6-2.7c-0.4-0.8-1-1.4-1.8-1.9c-0.8-0.5-1.6-0.7-2.5-0.7c-0.9,0-1.7,0.2-2.5,0.7c-0.7,0.4-1.4,1.1-1.8,1.9
	c-0.8,1.7-0.8,3.7,0,5.3c0.4,0.8,1,1.4,1.8,1.8c0.8,0.4,1.7,0.7,2.6,0.7C120.2,436.4,121,436.2,121.8,435.8z"/>
<path class="st0" d="M136.7,424.7h1.8l4,11.4l4-11.4h1.8l4,11.4l4-11.4h1.7l-4.9,13h-1.7l-4-11l-4,11h-1.8L136.7,424.7z"/>
<path class="st0" d="M162.4,420.1c0.2,0.2,0.3,0.5,0.3,0.8c0,0.3-0.1,0.6-0.3,0.9c-0.2,0.2-0.5,0.4-0.8,0.4c-0.3,0-0.6-0.1-0.8-0.4
	c-0.2-0.2-0.3-0.5-0.3-0.9c0-0.3,0.1-0.6,0.3-0.8c0.2-0.2,0.5-0.3,0.8-0.3C161.9,419.8,162.2,419.9,162.4,420.1z M160.8,424.7h1.7
	v13h-1.7V424.7z"/>
<path class="st0" d="M173.8,436.9c-0.8,0.6-1.8,1-2.9,1c-0.9,0-1.7-0.3-2.4-0.9c-0.6-0.8-0.9-1.8-0.9-2.8v-7.8h-1.9v-1.3h1.9v-3.4
	h1.7v3.4h4.2v1.3h-4.2v7.5c0,1.6,0.6,2.4,1.8,2.4c0.8,0,1.5-0.3,2.2-0.7L173.8,436.9z"/>
<path class="st0" d="M187.5,426c0.9,1,1.4,2.4,1.3,3.7v8h-1.7v-7.6c0.1-1.1-0.3-2.1-1-2.9c-0.8-0.7-1.8-1.1-2.8-1
	c-1.3,0-2.5,0.5-3.4,1.4c-0.9,1-1.3,2.4-1.2,3.7v6.4H177v-18.5h1.7v8.5c0.9-2.1,2.6-3.1,5.1-3.1C185.1,424.6,186.5,425.1,187.5,426z
	"/>
<path class="st0" d="M207.9,436.9c-0.8,0.6-1.8,1-2.9,1c-0.9,0-1.7-0.3-2.4-0.9c-0.6-0.8-1-1.8-0.9-2.8v-7.8h-1.9v-1.3h1.9v-3.4h1.7
	v3.4h4.2v1.3h-4.2v7.5c0,1.6,0.6,2.4,1.8,2.4c0.8,0,1.5-0.3,2.2-0.7L207.9,436.9z"/>
<path class="st0" d="M221.6,426c0.9,1,1.4,2.3,1.3,3.7v8h-1.7v-7.6c0.1-1.1-0.3-2.1-1-2.9c-0.8-0.7-1.8-1.1-2.8-1
	c-1.3,0-2.5,0.5-3.4,1.4c-0.9,1-1.3,2.4-1.2,3.7v6.4h-1.7v-18.5h1.6v8.5c0.9-2.1,2.6-3.1,5.2-3.1C219.3,424.6,220.7,425.1,221.6,426
	z"/>
<path class="st0" d="M237.6,426.6c1.1,1.5,1.6,3.3,1.5,5.2h-10.9c0.1,1.3,0.6,2.5,1.5,3.4c0.9,0.9,2.1,1.3,3.4,1.3
	c0.8,0,1.6-0.1,2.3-0.5c0.7-0.3,1.3-0.7,1.8-1.3l1,1c-0.6,0.7-1.4,1.2-2.3,1.6c-0.9,0.4-1.9,0.6-2.9,0.6c-1.2,0-2.3-0.3-3.4-0.8
	c-1-0.6-1.8-1.4-2.3-2.3c-1.1-2.1-1.1-4.7,0-6.8c0.5-1,1.3-1.8,2.3-2.3c1-0.6,2.2-0.8,3.3-0.8C234.7,424.6,236.4,425.3,237.6,426.6z
	 M237.6,430.5c0-1.2-0.5-2.4-1.4-3.2c-0.9-0.8-2-1.3-3.2-1.2c-1.2,0-2.4,0.4-3.3,1.2c-0.9,0.8-1.4,2-1.5,3.2H237.6z"/>
<path class="st0" d="M48.3,467.7l-2.1-4.6h-9.7l-2,4.6h-1.9l7.8-17.4h1.8l7.8,17.4H48.3z M37.2,461.5h8.3l-4.2-9.4L37.2,461.5z"/>
<path class="st0" d="M56.6,455.4c0.9-0.5,1.9-0.8,2.9-0.8v1.6c-1.2-0.1-2.4,0.4-3.3,1.2c-0.9,0.9-1.4,2.1-1.4,3.4v7H53v-13.1h1.7v3
	C55.1,456.7,55.7,455.9,56.6,455.4z"/>
<path class="st0" d="M69.8,466.8c-0.8,0.6-1.8,1-2.9,1c-0.9,0-1.7-0.3-2.4-0.9c-0.6-0.8-0.9-1.8-0.9-2.8v-7.8h-1.9V455h1.9v-3.4h1.7
	v3.4h4.2v1.3h-4.2v7.5c0,1.6,0.6,2.4,1.8,2.4c0.8,0,1.5-0.3,2.2-0.7L69.8,466.8z"/>
<path class="st0" d="M74.5,450c0.2,0.2,0.3,0.5,0.3,0.8c0,0.3-0.1,0.6-0.3,0.9c-0.2,0.2-0.5,0.4-0.8,0.4c-0.3,0-0.6-0.1-0.8-0.4
	c-0.2-0.2-0.3-0.5-0.3-0.9c0-0.6,0.5-1.2,1.1-1.2c0,0,0,0,0,0C74,449.7,74.3,449.8,74.5,450z M72.9,454.6h1.7v13.1h-1.7V454.6z"/>
<path class="st0" d="M77.4,454.6h1.8l4.3,11.4l4.2-11.4h1.7l-5.1,13.1h-1.8L77.4,454.6z"/>
<path class="st0" d="M94.1,450c0.2,0.2,0.3,0.5,0.3,0.8c0,0.3-0.1,0.6-0.3,0.9c-0.2,0.2-0.5,0.4-0.8,0.4c-0.3,0-0.6-0.1-0.8-0.4
	c-0.2-0.2-0.3-0.5-0.3-0.9c0-0.6,0.5-1.2,1.1-1.2c0,0,0,0,0,0C93.5,449.7,93.8,449.8,94.1,450z M92.4,454.6h1.7v13.1h-1.7V454.6z"/>
<path class="st0" d="M97,454.6h1.8l4.3,11.4l4.3-11.4h1.7l-5.2,13.1h-1.8L97,454.6z"/>
<path class="st0" d="M121.4,456.5c1.1,1.5,1.6,3.3,1.5,5.2H112c0.1,1.3,0.6,2.5,1.6,3.4c0.9,0.9,2.1,1.3,3.4,1.3
	c0.8,0,1.6-0.1,2.3-0.5c0.7-0.3,1.3-0.7,1.9-1.3l0.9,0.9c-0.6,0.7-1.4,1.2-2.3,1.6c-0.9,0.4-1.9,0.6-3,0.5c-1.2,0-2.3-0.3-3.4-0.8
	c-1-0.5-1.8-1.4-2.3-2.3c-1.1-2.1-1.1-4.7,0-6.8c0.5-1,1.3-1.8,2.3-2.3c1-0.6,2.2-0.9,3.3-0.8C118.5,454.4,120.2,455.2,121.4,456.5z
	 M121.4,460.4c0-1.2-0.5-2.4-1.4-3.2c-0.9-0.8-2-1.3-3.2-1.2c-1.2,0-2.4,0.4-3.3,1.2c-0.9,0.9-1.4,2-1.5,3.2H121.4z"/>
<path class="st0" d="M136.1,450c0.2,0.2,0.3,0.5,0.3,0.8c0,0.3-0.1,0.6-0.3,0.9c-0.2,0.2-0.5,0.4-0.8,0.4c-0.3,0-0.6-0.1-0.8-0.4
	c-0.2-0.2-0.3-0.5-0.3-0.9c0-0.6,0.5-1.2,1.1-1.2c0,0,0,0,0,0C135.6,449.7,135.9,449.8,136.1,450z M134.5,454.6h1.7v13.1h-1.7V454.6
	z"/>
<path class="st0" d="M146.3,456c-0.9,0-1.8,0.2-2.5,0.7c-0.7,0.4-1.4,1.1-1.8,1.8c-0.4,0.8-0.6,1.7-0.6,2.6c0,0.9,0.2,1.8,0.6,2.7
	c0.4,0.8,1,1.4,1.8,1.8c0.8,0.4,1.6,0.7,2.5,0.6c0.8,0,1.6-0.1,2.3-0.5c0.7-0.3,1.3-0.7,1.8-1.3l1,1c-0.6,0.7-1.3,1.3-2.2,1.6
	c-0.9,0.4-1.9,0.6-2.9,0.6c-1.2,0-2.3-0.3-3.3-0.8c-1-0.5-1.8-1.4-2.3-2.3c-1.1-2.1-1.1-4.7,0-6.8c0.5-1,1.3-1.8,2.3-2.3
	c1-0.6,2.2-0.9,3.3-0.8c0.9,0,1.9,0.2,2.8,0.5c0.8,0.3,1.5,0.8,2.1,1.4l-1,1.1C149.2,456.6,147.8,456,146.3,456z"/>
<path class="st0" d="M163.6,455.4c1,0.5,1.8,1.3,2.3,2.3c0.6,1,0.9,2.2,0.9,3.4c0,1.2-0.3,2.4-0.9,3.4c-0.5,1-1.4,1.8-2.3,2.3
	c-2.1,1.1-4.7,1.1-6.8,0c-1-0.5-1.8-1.4-2.3-2.3c-0.6-1-0.9-2.2-0.9-3.4c0-1.2,0.3-2.4,0.9-3.4c0.5-1,1.4-1.8,2.4-2.3
	C158.9,454.3,161.4,454.3,163.6,455.4L163.6,455.4z M157.6,456.7c-0.7,0.4-1.4,1.1-1.8,1.8c-0.8,1.7-0.8,3.7,0,5.4
	c0.4,0.8,1,1.4,1.8,1.8c1.6,0.9,3.5,0.9,5.1,0c0.7-0.4,1.3-1.1,1.7-1.8c0.8-1.7,0.8-3.7,0-5.4c-0.4-0.8-1-1.4-1.7-1.8
	C161.1,455.8,159.2,455.8,157.6,456.7z"/>
<path class="st0" d="M181,455.9c0.9,1,1.4,2.4,1.3,3.7v8h-1.7V460c0.1-1.1-0.3-2.1-1-2.9c-0.8-0.7-1.8-1.1-2.8-1
	c-1.2,0-2.4,0.4-3.2,1.2c-0.8,0.9-1.3,2.1-1.4,3.3v7h-1.7v-13h1.7v3c0.4-1,1.1-1.8,2-2.3c1-0.5,2.1-0.8,3.2-0.8
	C178.7,454.5,180,455,181,455.9z"/>
<path class="st0" d="M13.1,684.6c1.1,0.8,1.7,2.1,1.7,3.4c0,1-0.3,2.1-0.8,2.9c-0.6,0.9-1.4,1.6-2.4,2c-1.2,0.5-2.4,0.7-3.7,0.7
	c-1.1,0-2.2-0.2-3.3-0.5c-1-0.3-2-0.7-2.9-1.3l0.8-1.4c0.8,0.5,1.6,0.9,2.5,1.2c0.9,0.3,1.8,0.4,2.8,0.4c1.4,0.1,2.7-0.3,3.9-1.1
	c0.9-0.7,1.5-1.8,1.4-2.9c0.1-1.1-0.5-2.1-1.4-2.8c-1.2-0.7-2.6-1-3.9-0.9H5.4v-1.2l6.2-6.2h-9v-1.6h11.3v1.2l-6.5,6.5h1.1
	C10.2,683.2,11.8,683.7,13.1,684.6z"/>
<path class="st0" d="M20,691.8c0.2,0.2,0.3,0.5,0.3,0.8c0,0.3-0.1,0.6-0.3,0.8c-0.2,0.2-0.5,0.3-0.8,0.3c-0.3,0-0.6-0.1-0.8-0.3
	c-0.2-0.2-0.3-0.5-0.3-0.8c0-0.3,0.1-0.6,0.3-0.8c0.2-0.2,0.5-0.4,0.8-0.3C19.5,691.4,19.8,691.5,20,691.8z"/>
<path class="st0" d="M32.7,676.3h4.8l4.3,12.5l4.3-12.5h4.6l-6.8,17.3h-4.7L32.7,676.3z"/>
<path class="st0" d="M56.7,674.7c0.9,0.9,0.9,2.4,0,3.4c-0.9,0.9-2.4,0.9-3.3,0c-0.9-0.9-0.9-2.4,0-3.4
	C54.3,673.8,55.7,673.8,56.7,674.7z M52.8,680.2h4.4v13.3h-4.4V680.2z"/>
<path class="st0" d="M71.8,682c1.2,1.5,1.9,3.4,1.8,5.3c0,0.3,0,0.5,0,0.8h-9.3c0.2,0.7,0.6,1.3,1.1,1.7c0.6,0.4,1.2,0.6,1.9,0.6
	c0.6,0,1.1-0.1,1.7-0.3c0.5-0.2,1-0.6,1.5-1l2.3,2.3c-0.7,0.8-1.5,1.4-2.5,1.8c-1.1,0.4-2.2,0.6-3.3,0.6c-1.3,0-2.6-0.3-3.8-0.8
	c-1-0.5-1.9-1.4-2.4-2.4c-0.6-1.1-0.9-2.3-0.8-3.5c0-1.3,0.3-2.5,0.9-3.6c0.6-1,1.4-1.9,2.4-2.4c1.1-0.6,2.4-0.9,3.7-0.8
	C68.7,680,70.5,680.7,71.8,682z M69.3,685.7c0-0.7-0.2-1.4-0.7-1.9c-1-0.9-2.5-0.9-3.5,0c-0.5,0.5-0.8,1.2-0.9,1.9L69.3,685.7z"/>
<path class="st0" d="M74.1,680.2h4.5l2.7,9l2.6-9H88l2.6,9l2.7-9h4.3l-4.9,13.3h-4.3l-2.5-8.2l-2.6,8.2h-4.3L74.1,680.2z"/>
<path class="st0" d="M114.5,692.7c-0.8,0.6-1.8,1-2.9,1c-0.9,0-1.7-0.3-2.4-0.9c-0.6-0.8-0.9-1.8-0.9-2.8v-7.8h-1.9v-1.3h1.9v-3.4
	h1.7v3.4h4.2v1.3H110v7.5c0,1.6,0.6,2.4,1.8,2.4c0.8,0,1.5-0.3,2.2-0.7L114.5,692.7z"/>
<path class="st0" d="M128.2,681.8c0.9,1,1.4,2.4,1.3,3.7v8h-1.7v-7.6c0.1-1.1-0.3-2.1-1-2.9c-0.8-0.7-1.8-1.1-2.8-1
	c-1.3-0.1-2.5,0.5-3.4,1.4c-0.9,1-1.3,2.4-1.2,3.7v6.4h-1.7v-18.5h1.7v8.5c0.9-2.1,2.6-3.1,5.2-3.1
	C125.9,680.4,127.2,680.9,128.2,681.8z"/>
<path class="st0" d="M144.1,682.4c1.1,1.5,1.6,3.3,1.5,5.2h-10.9c0.1,1.3,0.6,2.5,1.6,3.4c0.9,0.9,2.1,1.3,3.4,1.3
	c0.8,0,1.6-0.1,2.3-0.4c0.7-0.3,1.4-0.7,1.9-1.3l0.9,0.9c-0.6,0.7-1.4,1.2-2.3,1.6c-0.9,0.4-1.9,0.6-2.9,0.6c-1.2,0-2.3-0.3-3.4-0.8
	c-1-0.5-1.8-1.4-2.3-2.3c-1.1-2.1-1.1-4.7,0-6.8c0.5-1,1.3-1.8,2.3-2.3c1-0.6,2.2-0.9,3.3-0.8C141.2,680.3,142.9,681.1,144.1,682.4z
	 M144.1,686.3c0-1.2-0.5-2.4-1.4-3.2c-0.9-0.8-2-1.3-3.2-1.2c-1.2,0-2.4,0.4-3.3,1.2c-0.9,0.9-1.4,2-1.5,3.2L144.1,686.3z"/>
<path class="st0" d="M165.3,693.5v-2.2c-0.5,0.7-1.2,1.3-2,1.7c-0.9,0.4-1.9,0.6-2.9,0.6c-0.8,0-1.6-0.2-2.3-0.5
	c-1.3-0.6-2.1-2-2.1-3.4c0-1.1,0.5-2.1,1.3-2.7c1.1-0.7,2.3-1.1,3.6-1h4.4v-1c0.1-0.9-0.3-1.8-0.9-2.4c-0.8-0.6-1.7-0.9-2.7-0.8
	c-1.5,0-3,0.6-4.2,1.6l-0.8-1.2c0.8-0.6,1.6-1,2.5-1.3c0.9-0.3,1.8-0.5,2.7-0.4c1.3-0.1,2.6,0.3,3.7,1.2c0.9,0.9,1.4,2,1.3,3.3v8.6
	L165.3,693.5z M163.7,691.4c0.8-0.5,1.4-1.3,1.6-2.3v-1.8h-4.2c-0.9-0.1-1.8,0.1-2.6,0.6c-0.6,0.4-0.9,1-0.9,1.7
	c0,0.7,0.3,1.4,0.9,1.9c0.6,0.5,1.5,0.8,2.3,0.7C161.8,692.3,162.8,692,163.7,691.4z"/>
<path class="st0" d="M175,681.2c0.9-0.5,1.9-0.8,2.9-0.8v1.6c-1.2-0.1-2.4,0.4-3.3,1.2c-0.9,0.9-1.4,2.1-1.4,3.3v7h-1.7v-13.1h1.7v3
	C173.5,682.6,174.2,681.8,175,681.2z"/>
<path class="st0" d="M188.2,692.7c-0.8,0.6-1.8,1-2.9,1c-0.9,0-1.7-0.3-2.4-0.9c-0.6-0.8-1-1.8-0.9-2.8v-7.8h-1.9v-1.3h1.9v-3.4h1.7
	v3.4h4.2v1.3h-4.2v7.5c0,1.6,0.6,2.4,1.8,2.4c0.8,0,1.5-0.3,2.2-0.7L188.2,692.7z"/>
<path class="st0" d="M190,680.5h1.8l4,11.4l4-11.4h1.8l4,11.4l4-11.4h1.8l-4.9,13h-1.7l-4-11l-4,11h-1.8L190,680.5z"/>
<path class="st0" d="M222.5,681.3c1,0.5,1.8,1.3,2.3,2.3c0.6,1,0.9,2.2,0.9,3.4c0,1.2-0.3,2.4-0.9,3.4c-0.5,1-1.4,1.8-2.3,2.3
	c-2.1,1.1-4.6,1.1-6.8,0c-1-0.5-1.8-1.4-2.4-2.3c-0.6-1.1-0.9-2.2-0.8-3.4c0-1.2,0.3-2.4,0.8-3.4c0.6-1,1.4-1.8,2.4-2.3
	C217.8,680.2,220.4,680.2,222.5,681.3z M216.6,682.5c-0.7,0.4-1.3,1.1-1.7,1.8c-0.8,1.7-0.8,3.7,0,5.4c0.4,0.8,1,1.4,1.7,1.8
	c0.8,0.4,1.7,0.7,2.5,0.6c0.9,0,1.8-0.2,2.5-0.6c0.7-0.4,1.4-1.1,1.8-1.8c0.8-1.7,0.8-3.7,0-5.4c-0.4-0.8-1-1.4-1.8-1.8
	c-0.8-0.4-1.7-0.7-2.5-0.6C218.2,681.9,217.3,682.1,216.6,682.5z"/>
<path class="st0" d="M233,681.2c0.9-0.5,1.9-0.8,2.9-0.8v1.6c-1.2-0.1-2.4,0.4-3.3,1.2c-0.9,0.9-1.4,2.1-1.4,3.3v7h-1.7v-13.1h1.7v3
	C231.5,682.6,232.1,681.8,233,681.2z"/>
<path class="st0" d="M248.1,693.5l-4.6-6.8l-2.9,3v3.8h-1.7v-18.5h1.7v12.6l7-7.1h2l-4.9,5.1l5.5,8L248.1,693.5z"/>
<path class="st0" d="M41.8,722.5c-0.8,0.6-1.8,1-2.9,1c-0.9,0-1.8-0.3-2.4-0.9c-0.6-0.8-0.9-1.8-0.9-2.8v-7.8h-1.9v-1.3h1.9v-3.4
	h1.7v3.4h4.2v1.3h-4.3v7.5c0,1.6,0.6,2.4,1.8,2.4c0.8,0,1.5-0.3,2.2-0.7L41.8,722.5z"/>
<path class="st0" d="M55.5,711.7c0.9,1,1.4,2.4,1.3,3.7v8h-1.7v-7.6c0.1-1.1-0.3-2.1-1-2.9c-0.8-0.7-1.8-1.1-2.8-1
	c-1.3,0-2.5,0.5-3.4,1.4c-0.9,1-1.3,2.4-1.2,3.7v6.4H45V705h1.7v8.5c0.9-2.1,2.6-3.1,5.2-3.1C53.2,710.3,54.5,710.8,55.5,711.7z"/>
<path class="st0" d="M64.9,711.2c0.9-0.5,1.9-0.8,2.9-0.8v1.6c-1.2-0.1-2.4,0.4-3.3,1.2c-0.9,0.9-1.4,2.1-1.4,3.3v7h-1.7v-13.1H63v3
	C63.4,712.5,64.1,711.7,64.9,711.2z"/>
<path class="st0" d="M79.2,711.2c1,0.5,1.8,1.4,2.3,2.3c1.1,2.1,1.1,4.7,0,6.8c-0.5,1-1.4,1.8-2.3,2.3c-2.1,1.1-4.7,1.1-6.8,0
	c-1-0.5-1.8-1.4-2.3-2.3c-1.1-2.1-1.1-4.7,0-6.8c0.5-1,1.4-1.8,2.3-2.3C74.5,710.1,77,710.1,79.2,711.2z M73.2,712.4
	c-0.7,0.4-1.4,1.1-1.8,1.8c-0.8,1.7-0.8,3.7,0,5.3c0.4,0.8,1,1.4,1.8,1.8c1.6,0.9,3.5,0.9,5.1,0c0.7-0.4,1.3-1.1,1.7-1.8
	c0.8-1.7,0.8-3.7,0-5.3c-0.4-0.8-1-1.4-1.7-1.8C76.7,711.6,74.8,711.6,73.2,712.4z"/>
<path class="st0" d="M97.4,710.4v13h-1.7v-3.1c-0.4,1-1,1.8-1.9,2.4c-0.9,0.5-2,0.8-3.1,0.8c-1.3,0.1-2.7-0.4-3.6-1.4
	c-0.9-1-1.4-2.4-1.3-3.8v-8h1.7v7.6c-0.1,1.1,0.3,2.1,1,2.9c0.7,0.7,1.8,1.1,2.8,1c1.3,0,2.5-0.5,3.3-1.4c0.8-1,1.3-2.4,1.2-3.7
	v-6.4L97.4,710.4z"/>
<path class="st0" d="M113.8,710.4v11.7c0,1.2-0.3,2.3-0.8,3.3c-0.5,0.9-1.3,1.7-2.3,2.2c-1.1,0.5-2.2,0.8-3.4,0.8
	c-2,0-3.9-0.7-5.4-2l0.8-1.2c0.6,0.6,1.3,1,2.1,1.3c0.8,0.3,1.6,0.4,2.4,0.4c1.3,0.1,2.6-0.4,3.6-1.3c0.9-0.9,1.4-2.2,1.3-3.5V720
	c-0.4,0.9-1.1,1.6-2,2.1c-0.9,0.5-1.9,0.8-3,0.8c-1.1,0-2.2-0.3-3.1-0.8c-0.9-0.5-1.6-1.3-2.1-2.2c-1-2-1-4.4,0-6.5
	c0.5-0.9,1.2-1.7,2.1-2.2c1-0.5,2-0.8,3.1-0.8c1.1,0,2.1,0.2,3,0.8c0.9,0.5,1.6,1.3,2,2.2v-2.9L113.8,710.4z M109.8,720.9
	c0.7-0.4,1.3-1,1.7-1.8c0.8-1.6,0.8-3.5,0-5.1c-0.4-0.7-1-1.3-1.7-1.8c-1.5-0.8-3.3-0.8-4.8,0c-0.7,0.4-1.3,1-1.7,1.8
	c-0.4,0.8-0.6,1.7-0.6,2.5c0,0.9,0.2,1.8,0.6,2.5c0.4,0.7,1,1.3,1.7,1.7C106.5,721.8,108.3,721.8,109.8,720.9z"/>
<path class="st0" d="M129,711.7c0.9,1,1.4,2.4,1.3,3.7v8h-1.7v-7.6c0.1-1.1-0.3-2.1-1-2.9c-0.8-0.7-1.8-1.1-2.8-1
	c-1.3,0-2.5,0.5-3.4,1.4c-0.9,1-1.3,2.4-1.2,3.7v6.4h-1.7V705h1.7v8.5c0.9-2.1,2.6-3.1,5.2-3.1C126.7,710.3,128,710.8,129,711.7z"/>
<path class="st0" d="M145.2,727.6c-0.6,0.5-1.4,0.8-2.3,0.8c-1,0-1.9-0.3-2.7-0.9l0.8-1.3c0.5,0.4,1.2,0.6,1.8,0.5
	c0.5,0,1-0.2,1.4-0.5c0.5-0.4,0.8-0.9,1.1-1.5l0.5-1.3l-5.4-13h1.8l4.6,11.3l4.3-11.2h1.7l-6,14.9
	C146.5,726.2,145.9,727,145.2,727.6z"/>
<path class="st0" d="M164,711.2c1,0.5,1.8,1.3,2.3,2.3c1.1,2.1,1.1,4.7,0,6.8c-0.5,1-1.4,1.8-2.3,2.3c-2.1,1.1-4.6,1.1-6.8,0
	c-1-0.5-1.8-1.4-2.4-2.4c-1.1-2.1-1.1-4.7,0-6.8c0.5-1,1.4-1.8,2.4-2.3C159.3,710.1,161.8,710.1,164,711.2L164,711.2z M158,712.4
	c-0.7,0.4-1.3,1.1-1.7,1.8c-0.8,1.7-0.8,3.7,0,5.3c0.4,0.8,1,1.4,1.7,1.8c1.6,0.9,3.5,0.9,5.1,0c0.7-0.4,1.3-1.1,1.7-1.8
	c0.8-1.7,0.8-3.7,0-5.3c-0.4-0.8-1-1.4-1.7-1.8C161.5,711.6,159.6,711.6,158,712.4z"/>
<path class="st0" d="M182.2,710.4v13h-1.7v-3.1c-0.4,1-1.1,1.8-1.9,2.3c-0.9,0.5-2,0.8-3.1,0.8c-1.3,0.1-2.7-0.4-3.6-1.4
	c-0.9-1-1.4-2.4-1.3-3.7v-8h1.7v7.6c-0.1,1.1,0.3,2.1,1,2.9c0.7,0.7,1.7,1.1,2.8,1c1.3,0,2.5-0.5,3.3-1.4c0.8-1,1.3-2.4,1.2-3.7
	v-6.4L182.2,710.4z"/>
<path class="st0" d="M190.5,711.2c0.9-0.5,1.9-0.8,2.9-0.8v1.6c-1.2-0.1-2.4,0.4-3.3,1.2c-0.9,0.9-1.4,2.1-1.4,3.3v7H187v-13.1h1.7
	v3C189,712.5,189.7,711.7,190.5,711.2z"/>
<path class="st0" d="M209.3,712c-0.6-0.2-1.2-0.3-1.8-0.3c-0.7,0-1.4,0.1-2,0.5c-0.5,0.3-0.8,0.9-0.8,1.5c0,0.4,0.1,0.8,0.4,1.1
	c0.3,0.3,0.6,0.5,1,0.7c0.6,0.2,1.1,0.4,1.7,0.6c0.7,0.2,1.5,0.5,2.2,0.8c0.6,0.3,1.1,0.6,1.4,1.1c0.4,0.6,0.6,1.2,0.6,1.9
	c0.1,1.1-0.5,2.1-1.3,2.7c-1,0.6-2.2,1-3.4,0.9c-0.9,0-1.9-0.2-2.7-0.5c-0.8-0.3-1.6-0.7-2.2-1.3l0.7-1.2c0.6,0.5,1.3,0.9,2,1.2
	c0.8,0.3,1.6,0.4,2.4,0.4c0.8,0,1.5-0.2,2.1-0.5c0.5-0.3,0.9-1,0.8-1.6c0-0.4-0.1-0.9-0.4-1.2c-0.3-0.3-0.7-0.6-1.1-0.7
	c-0.6-0.2-1.2-0.4-1.8-0.6c-0.7-0.2-1.5-0.5-2.1-0.8c-0.5-0.2-1-0.6-1.4-1.1c-0.4-0.5-0.6-1.2-0.6-1.9c-0.1-1,0.4-2,1.3-2.6
	c1-0.6,2.1-0.9,3.2-0.9c0.7,0,1.5,0.1,2.2,0.3c0.7,0.2,1.3,0.5,1.9,0.8l-0.6,1.3C210.4,712.4,209.9,712.1,209.3,712z"/>
<path class="st0" d="M235.9,711.7c0.9,1,1.4,2.4,1.3,3.7v8h-1.7v-7.6c0.1-1.1-0.3-2.1-1-2.9c-0.7-0.7-1.8-1.1-2.8-1
	c-1.3,0-2.5,0.5-3.3,1.5c-0.8,1-1.2,2.4-1.2,3.7v6.4h-1.7v-7.6c0.1-1.1-0.3-2.1-1-2.9c-0.7-0.7-1.8-1.1-2.8-1
	c-1.3,0-2.5,0.5-3.3,1.5c-0.8,1-1.3,2.3-1.2,3.7v6.4h-1.7v-13.1h1.7v3.1c0.4-1,1.1-1.8,1.9-2.3c0.9-0.5,2-0.8,3.1-0.8
	c1.1,0,2.2,0.3,3.1,0.9c0.8,0.6,1.4,1.6,1.6,2.6c0.3-1.1,1-2,1.9-2.6c1-0.6,2.1-0.9,3.3-0.9C233.6,710.3,234.9,710.8,235.9,711.7z"
	/>
<path class="st0" d="M249.9,723.4v-2.2c-0.5,0.7-1.2,1.3-2,1.7c-0.9,0.4-1.9,0.6-2.9,0.6c-0.8,0-1.6-0.2-2.3-0.5
	c-1.3-0.6-2.1-2-2.1-3.4c0-1.1,0.5-2.1,1.3-2.7c1.1-0.7,2.3-1.1,3.6-1h4.4v-1c0.1-0.9-0.3-1.8-0.9-2.4c-0.8-0.6-1.7-0.9-2.7-0.8
	c-1.5,0.1-3,0.6-4.2,1.6l-0.7-1.2c0.8-0.6,1.6-1,2.5-1.4c0.9-0.3,1.8-0.4,2.7-0.4c1.3-0.1,2.6,0.3,3.7,1.2c0.9,0.9,1.4,2,1.3,3.3
	v8.6L249.9,723.4z M248.3,721.3c0.8-0.5,1.4-1.3,1.6-2.3v-1.8h-4.2c-0.9-0.1-1.8,0.1-2.6,0.6c-0.6,0.4-0.9,1-0.9,1.7
	c0,0.7,0.3,1.4,0.9,1.9c0.7,0.5,1.5,0.8,2.3,0.7C246.4,722.2,247.4,721.9,248.3,721.3z"/>
<path class="st0" d="M259.6,711.2c0.9-0.5,1.9-0.8,2.9-0.8v1.6c-1.2-0.1-2.4,0.4-3.3,1.2c-0.9,0.9-1.4,2.1-1.4,3.3v7h-1.7v-13.1h1.7
	v3C258.2,712.5,258.8,711.7,259.6,711.2z"/>
<path class="st0" d="M272.8,722.5c-0.8,0.6-1.9,1-2.9,1c-0.9,0-1.8-0.3-2.4-0.9c-0.6-0.8-0.9-1.8-0.9-2.8v-7.8h-1.9v-1.3h1.9v-3.4
	h1.7v3.4h4.2v1.3h-4.2v7.5c0,1.6,0.6,2.4,1.8,2.4c0.8,0,1.5-0.3,2.2-0.7L272.8,722.5z"/>
<path class="st0" d="M286.1,711.2c1,0.6,1.7,1.4,2.2,2.3c0.5,1.1,0.8,2.2,0.8,3.4c0,1.2-0.3,2.3-0.8,3.4c-0.5,1-1.3,1.8-2.2,2.4
	c-1,0.6-2.1,0.8-3.2,0.8c-1.1,0-2.2-0.3-3.1-0.8c-0.9-0.5-1.6-1.3-2.1-2.2v7.8H276v-17.9h1.7v3c0.5-0.9,1.2-1.7,2.1-2.2
	c0.9-0.5,2-0.8,3.1-0.8C284,710.3,285.1,710.6,286.1,711.2z M285.1,721.4c0.7-0.4,1.3-1.1,1.7-1.8c0.8-1.7,0.8-3.6,0-5.3
	c-0.4-0.8-1-1.4-1.7-1.8c-1.6-0.9-3.5-0.9-5,0c-0.7,0.4-1.3,1.1-1.7,1.8c-0.8,1.7-0.8,3.6,0,5.3c0.4,0.8,1,1.4,1.7,1.8
	C281.6,722.3,283.5,722.3,285.1,721.4L285.1,721.4z"/>
<path class="st0" d="M303.4,711.7c0.9,1,1.4,2.4,1.3,3.7v8h-1.7v-7.6c0.1-1.1-0.3-2.1-1-2.9c-0.8-0.7-1.8-1.1-2.8-1
	c-1.3,0-2.5,0.5-3.4,1.4c-0.9,1-1.3,2.4-1.2,3.7v6.4h-1.7V705h1.7v8.5c0.9-2.1,2.6-3.1,5.2-3.1C301.1,710.3,302.5,710.8,303.4,711.7
	z"/>
<path class="st0" d="M318.2,711.2c1,0.5,1.8,1.3,2.3,2.3c1.1,2.1,1.1,4.7,0,6.8c-0.5,1-1.3,1.8-2.3,2.4c-2.1,1.1-4.7,1.1-6.8,0
	c-1-0.6-1.8-1.4-2.3-2.3c-1.1-2.1-1.1-4.7,0-6.8c0.6-1,1.4-1.8,2.3-2.3C313.5,710.1,316.1,710.1,318.2,711.2L318.2,711.2z
	 M312.3,712.4c-0.7,0.4-1.3,1.1-1.7,1.8c-0.8,1.7-0.8,3.7,0,5.3c0.4,0.8,1,1.4,1.7,1.8c1.6,0.9,3.5,0.9,5.1,0
	c0.7-0.4,1.4-1.1,1.8-1.8c0.8-1.7,0.8-3.7,0-5.3c-0.4-0.8-1-1.4-1.8-1.8C315.8,711.6,313.8,711.6,312.3,712.4z"/>
<path class="st0" d="M335.6,711.7c0.9,1,1.4,2.4,1.3,3.7v8h-1.7v-7.6c0.1-1.1-0.3-2.1-1-2.9c-0.8-0.7-1.8-1.1-2.8-1
	c-1.2,0-2.4,0.4-3.2,1.2c-0.8,0.9-1.3,2.1-1.4,3.3v7h-1.7v-13h1.7v3c0.4-1,1.1-1.8,2-2.3c1-0.5,2.1-0.8,3.2-0.8
	C333.3,710.2,334.6,710.8,335.6,711.7z"/>
<path class="st0" d="M351.5,712.3c1.1,1.5,1.7,3.3,1.5,5.2h-10.9c0.1,1.3,0.6,2.5,1.5,3.4c0.9,0.9,2.1,1.3,3.4,1.3
	c0.8,0,1.6-0.1,2.3-0.5c0.7-0.3,1.3-0.7,1.8-1.3l1,1c-0.6,0.7-1.4,1.2-2.3,1.6c-0.9,0.4-1.9,0.6-2.9,0.6c-1.2,0-2.3-0.3-3.4-0.8
	c-1-0.6-1.8-1.4-2.3-2.3c-1.1-2.1-1.1-4.7,0-6.8c0.5-1,1.3-1.8,2.3-2.3c1-0.6,2.2-0.9,3.3-0.8C348.6,710.2,350.3,710.9,351.5,712.3z
	 M351.5,716.2c0-1.2-0.5-2.4-1.4-3.2c-0.9-0.8-2-1.3-3.2-1.2c-1.2,0-2.4,0.4-3.3,1.2c-0.9,0.8-1.4,2-1.5,3.2L351.5,716.2z"/>
</svg>
